<svg width="663" height="152" viewBox="0 0 663 152" fill="none" xmlns="http://www.w3.org/2000/svg">
<g clip-path="url(#clip0)">
<path d="M1.5 113.5V8.5H56.379L82.5 34.621V113.5H1.5Z" fill="#00C58E" fill-opacity="0.17"/>
<path d="M55.758 10L81 35.242V112H3V10H55.758ZM57 7H0V115H84V34L57 7Z" fill="#00C58E"/>
<path d="M57 11.242L79.758 34H57V11.242ZM57 7H54V37H84V34L57 7ZM54 37H21C19.344 37 18 35.656 18 34C18 32.344 19.344 31 21 31H54V37ZM25.5 55H19.5C18.672 55 18 54.328 18 53.5C18 52.672 18.672 52 19.5 52H25.5C26.328 52 27 52.672 27 53.5C27 54.328 26.328 55 25.5 55ZM64.5 55H34.5C33.672 55 33 54.328 33 53.5C33 52.672 33.672 52 34.5 52H64.5C65.328 52 66 52.672 66 53.5C66 54.328 65.328 55 64.5 55ZM25.5 67H19.5C18.672 67 18 66.328 18 65.5C18 64.672 18.672 64 19.5 64H25.5C26.328 64 27 64.672 27 65.5C27 66.328 26.328 67 25.5 67ZM64.5 67H34.5C33.672 67 33 66.328 33 65.5C33 64.672 33.672 64 34.5 64H64.5C65.328 64 66 64.672 66 65.5C66 66.328 65.328 67 64.5 67ZM25.5 79H19.5C18.672 79 18 78.328 18 77.5C18 76.672 18.672 76 19.5 76H25.5C26.328 76 27 76.672 27 77.5C27 78.328 26.328 79 25.5 79ZM64.5 79H34.5C33.672 79 33 78.328 33 77.5C33 76.672 33.672 76 34.5 76H64.5C65.328 76 66 76.672 66 77.5C66 78.328 65.328 79 64.5 79ZM25.5 91H19.5C18.672 91 18 90.328 18 89.5C18 88.672 18.672 88 19.5 88H25.5C26.328 88 27 88.672 27 89.5C27 90.328 26.328 91 25.5 91ZM64.5 91H34.5C33.672 91 33 90.328 33 89.5C33 88.672 33.672 88 34.5 88H64.5C65.328 88 66 88.672 66 89.5C66 90.328 65.328 91 64.5 91Z" fill="#00C58E"/>
<path d="M291.5 113.5V80.731L289.316 81.847C287.177 82.945 284.882 83.5 282.5 83.5C274.229 83.5 267.5 76.771 267.5 68.5C267.5 60.229 274.229 53.5 282.5 53.5C284.882 53.5 287.177 54.055 289.316 55.153L291.5 56.269V26.5H324.272L323.153 24.316C322.058 22.18 321.5 19.885 321.5 17.5C321.5 9.229 328.229 2.5 336.5 2.5C344.771 2.5 351.5 9.229 351.5 17.5C351.5 19.885 350.942 22.18 349.847 24.316L348.728 26.5H378.5V51.535C376.574 50.848 374.564 50.5 372.5 50.5C362.573 50.5 354.5 58.573 354.5 68.5C354.5 78.427 362.573 86.5 372.5 86.5C374.564 86.5 376.574 86.152 378.5 85.465V113.5H291.5Z" fill="#00C58E" fill-opacity="0.17"/>
<path d="M336.5 4C343.943 4 350 10.057 350 17.5C350 19.642 349.499 21.706 348.515 23.632L346.28 28H351.185H377V49.525C375.536 49.177 374.033 49 372.5 49C361.748 49 353 57.748 353 68.5C353 79.252 361.748 88 372.5 88C374.033 88 375.536 87.823 377 87.475V112H293V83.185V78.28L288.632 80.515C286.706 81.499 284.642 82 282.5 82C275.057 82 269 75.943 269 68.5C269 61.057 275.057 55 282.5 55C284.642 55 286.706 55.501 288.632 56.485L293 58.72V53.815V28H321.815H326.72L324.485 23.632C323.501 21.706 323 19.642 323 17.5C323 10.057 329.057 4 336.5 4ZM336.5 1C327.386 1 320 8.386 320 17.5C320 20.203 320.663 22.747 321.815 25H290V53.815C287.747 52.663 285.203 52 282.5 52C273.386 52 266 59.386 266 68.5C266 77.614 273.386 85 282.5 85C285.203 85 287.747 84.337 290 83.185V115H380V83.185C377.747 84.337 375.203 85 372.5 85C363.386 85 356 77.614 356 68.5C356 59.386 363.386 52 372.5 52C375.203 52 377.747 52.663 380 53.815V25H351.185C352.337 22.747 353 20.203 353 17.5C353 8.386 345.614 1 336.5 1Z" fill="#00C58E"/>
<path d="M618 116.5C594.423 116.5 574.5 108.256 574.5 98.5V22C574.5 22 582 36 618 36C654 36 661.5 22 661.5 22V98.5C661.5 108.256 641.577 116.5 618 116.5Z" fill="#00C58E" fill-opacity="0.17"/>
<path d="M618 35.5C591.978 35.5 574.5 27.745 574.5 20.5C574.5 13.255 591.978 5.5 618 5.5C644.022 5.5 661.5 13.255 661.5 20.5C661.5 27.745 644.022 35.5 618 35.5Z" fill="#00C58E" fill-opacity="0.17"/>
<path d="M618 7C644.022 7 660 14.863 660 20.5C660 26.137 644.022 34 618 34C591.978 34 576 26.137 576 20.5C576 14.863 591.978 7 618 7ZM618 4C593.148 4 573 11.386 573 20.5C573 29.614 593.148 37 618 37C642.852 37 663 29.614 663 20.5C663 11.386 642.852 4 618 4Z" fill="#00C58E"/>
<path d="M661.5 46.549C661.5 55.357 642.024 62.5 618 62.5C593.976 62.5 574.5 55.36 574.5 46.549M574.5 70.651C574.5 81.061 593.976 89.5 618 89.5C642.024 89.5 661.5 81.061 661.5 70.651" stroke="#00C58E" stroke-width="2" stroke-miterlimit="10"/>
<path fill-rule="evenodd" clip-rule="evenodd" d="M575 20.5H573V98.5C573 109.27 593.148 118 618 118C642.852 118 663 109.27 663 98.5V20.5H662V24H660V98.5C660 106.303 642.75 115 618 115C593.25 115 576 106.303 576 98.5V24H575V20.5Z" fill="#00C58E"/>
<path d="M20.9983 128.4C21.6103 128.4 22.1923 128.586 22.7443 128.958C23.2963 129.318 23.7403 129.81 24.0763 130.434C24.4123 131.046 24.5803 131.718 24.5803 132.45C24.5803 133.17 24.4123 133.842 24.0763 134.466C23.7403 135.09 23.2963 135.588 22.7443 135.96C22.1923 136.32 21.6103 136.5 20.9983 136.5H17.8663V139.902C17.8663 140.226 17.7703 140.49 17.5783 140.694C17.3863 140.898 17.1343 141 16.8223 141C16.5223 141 16.2763 140.898 16.0843 140.694C15.8923 140.478 15.7963 140.214 15.7963 139.902V129.498C15.7963 129.186 15.8983 128.928 16.1023 128.724C16.3183 128.508 16.5823 128.4 16.8943 128.4H20.9983ZM20.9983 134.448C21.2263 134.448 21.4483 134.352 21.6643 134.16C21.8923 133.968 22.0723 133.722 22.2043 133.422C22.3483 133.11 22.4203 132.786 22.4203 132.45C22.4203 132.114 22.3483 131.796 22.2043 131.496C22.0723 131.184 21.8923 130.938 21.6643 130.758C21.4483 130.566 21.2263 130.47 20.9983 130.47H17.8663V134.448H20.9983ZM35.8033 139.596C35.8633 139.752 35.8933 139.896 35.8933 140.028C35.8933 140.34 35.7913 140.598 35.5873 140.802C35.3833 140.994 35.1493 141.09 34.8853 141.09C34.6693 141.09 34.4713 141.024 34.2913 140.892C34.1233 140.76 33.9913 140.58 33.8953 140.352L32.9593 138.174H27.5953L26.6593 140.37C26.5753 140.598 26.4433 140.778 26.2633 140.91C26.0953 141.03 25.9093 141.09 25.7053 141.09C25.3933 141.09 25.1533 141.006 24.9853 140.838C24.8293 140.67 24.7513 140.442 24.7513 140.154C24.7513 140.046 24.7693 139.932 24.8053 139.812L29.2873 129.048C29.3833 128.808 29.5273 128.622 29.7193 128.49C29.9113 128.358 30.1273 128.304 30.3673 128.328C30.5833 128.328 30.7813 128.394 30.9613 128.526C31.1533 128.646 31.2913 128.82 31.3753 129.048L35.8033 139.596ZM32.0773 136.104L30.2593 131.892L28.4773 136.104H32.0773ZM46.6175 134.196C46.9295 134.196 47.1875 134.304 47.3915 134.52C47.5955 134.724 47.6975 134.982 47.6975 135.294V139.11C47.6975 139.53 47.5115 139.854 47.1395 140.082C45.9635 140.814 44.6735 141.18 43.2695 141.18C42.0815 141.18 40.9835 140.892 39.9755 140.316C38.9675 139.728 38.1695 138.942 37.5815 137.958C36.9935 136.962 36.6995 135.876 36.6995 134.7C36.6995 133.524 36.9935 132.444 37.5815 131.46C38.1695 130.464 38.9675 129.678 39.9755 129.102C40.9835 128.514 42.0815 128.22 43.2695 128.22C44.4575 128.22 45.4895 128.46 46.3655 128.94C46.5455 129.036 46.6775 129.162 46.7615 129.318C46.8575 129.474 46.9055 129.642 46.9055 129.822C46.9055 130.122 46.8035 130.386 46.5995 130.614C46.4075 130.83 46.1675 130.938 45.8795 130.938C45.6995 130.938 45.5015 130.89 45.2855 130.794C44.6375 130.518 43.9655 130.38 43.2695 130.38C42.5015 130.38 41.7935 130.578 41.1455 130.974C40.4975 131.358 39.9815 131.88 39.5975 132.54C39.2255 133.2 39.0395 133.92 39.0395 134.7C39.0395 135.48 39.2255 136.2 39.5975 136.86C39.9815 137.52 40.4975 138.048 41.1455 138.444C41.7935 138.828 42.5015 139.02 43.2695 139.02C43.6055 139.02 43.9655 138.99 44.3495 138.93C44.7335 138.87 45.0695 138.792 45.3575 138.696V136.356H43.6655C43.3535 136.356 43.0895 136.254 42.8735 136.05C42.6695 135.846 42.5675 135.588 42.5675 135.276C42.5675 134.964 42.6695 134.706 42.8735 134.502C43.0895 134.298 43.3535 134.196 43.6655 134.196H46.6175ZM56.9907 138.93C57.3027 138.93 57.5607 139.038 57.7647 139.254C57.9807 139.458 58.0887 139.698 58.0887 139.974C58.0887 140.274 57.9807 140.52 57.7647 140.712C57.5607 140.904 57.3027 141 56.9907 141H50.9607C50.6487 141 50.3847 140.898 50.1687 140.694C49.9647 140.478 49.8627 140.214 49.8627 139.902V129.498C49.8627 129.186 49.9647 128.928 50.1687 128.724C50.3847 128.508 50.6487 128.4 50.9607 128.4H56.9907C57.3027 128.4 57.5607 128.502 57.7647 128.706C57.9807 128.898 58.0887 129.15 58.0887 129.462C58.0887 129.762 57.9867 130.008 57.7827 130.2C57.5787 130.38 57.3147 130.47 56.9907 130.47H52.1127V133.53H56.1807C56.4927 133.53 56.7507 133.632 56.9547 133.836C57.1707 134.028 57.2787 134.28 57.2787 134.592C57.2787 134.892 57.1767 135.138 56.9727 135.33C56.7687 135.51 56.5047 135.6 56.1807 135.6H52.1127V138.93H56.9907ZM64.2135 141.18C63.3495 141.18 62.5815 141.072 61.9095 140.856C61.2375 140.64 60.6075 140.274 60.0195 139.758C59.6955 139.47 59.5335 139.152 59.5335 138.804C59.5335 138.528 59.6355 138.288 59.8395 138.084C60.0435 137.868 60.2895 137.76 60.5775 137.76C60.8055 137.76 61.0095 137.832 61.1895 137.976C61.6695 138.372 62.1375 138.66 62.5935 138.84C63.0495 139.02 63.5895 139.11 64.2135 139.11C64.8855 139.11 65.4615 138.96 65.9415 138.66C66.4335 138.36 66.6795 137.988 66.6795 137.544C66.6795 137.004 66.4395 136.584 65.9595 136.284C65.4795 135.972 64.7175 135.738 63.6735 135.582C61.0455 135.198 59.7315 133.974 59.7315 131.91C59.7315 131.154 59.9295 130.5 60.3255 129.948C60.7215 129.384 61.2615 128.958 61.9455 128.67C62.6295 128.37 63.3915 128.22 64.2315 128.22C64.9875 128.22 65.6955 128.334 66.3555 128.562C67.0275 128.79 67.5855 129.09 68.0295 129.462C68.3775 129.738 68.5515 130.056 68.5515 130.416C68.5515 130.692 68.4495 130.938 68.2455 131.154C68.0415 131.358 67.8015 131.46 67.5255 131.46C67.3455 131.46 67.1835 131.406 67.0395 131.298C66.7275 131.046 66.2895 130.818 65.7255 130.614C65.1735 130.398 64.6755 130.29 64.2315 130.29C63.4755 130.29 62.8875 130.434 62.4675 130.722C62.0595 130.998 61.8555 131.364 61.8555 131.82C61.8555 132.336 62.0655 132.726 62.4855 132.99C62.9175 133.254 63.5895 133.47 64.5015 133.638C65.5335 133.818 66.3555 134.052 66.9675 134.34C67.5915 134.616 68.0595 135 68.3715 135.492C68.6835 135.972 68.8395 136.614 68.8395 137.418C68.8395 138.174 68.6235 138.84 68.1915 139.416C67.7715 139.98 67.2075 140.418 66.4995 140.73C65.7915 141.03 65.0295 141.18 64.2135 141.18Z" fill="#00C58E"/>
<path d="M280.182 129.012C280.554 129.204 280.74 129.51 280.74 129.93C280.74 130.182 280.65 130.428 280.47 130.668C280.278 130.92 280.032 131.046 279.732 131.046C279.528 131.046 279.324 130.992 279.12 130.884C278.532 130.608 277.896 130.47 277.212 130.47C276.372 130.47 275.64 130.65 275.016 131.01C274.392 131.358 273.912 131.856 273.576 132.504C273.24 133.14 273.072 133.872 273.072 134.7C273.072 136.116 273.45 137.19 274.206 137.922C274.974 138.654 275.976 139.02 277.212 139.02C277.944 139.02 278.58 138.882 279.12 138.606C279.336 138.51 279.528 138.462 279.696 138.462C280.008 138.462 280.272 138.594 280.488 138.858C280.668 139.086 280.758 139.332 280.758 139.596C280.758 139.788 280.71 139.962 280.614 140.118C280.518 140.274 280.38 140.394 280.2 140.478C279.264 140.946 278.268 141.18 277.212 141.18C276.036 141.18 274.956 140.934 273.972 140.442C272.988 139.938 272.202 139.2 271.614 138.228C271.026 137.256 270.732 136.08 270.732 134.7C270.732 133.476 271.008 132.378 271.56 131.406C272.124 130.434 272.898 129.678 273.882 129.138C274.866 128.586 275.976 128.31 277.212 128.31C278.28 128.31 279.27 128.544 280.182 129.012ZM294.239 134.7C294.239 135.888 293.975 136.98 293.447 137.976C292.919 138.96 292.187 139.74 291.251 140.316C290.327 140.892 289.283 141.18 288.119 141.18C286.955 141.18 285.905 140.892 284.969 140.316C284.045 139.74 283.319 138.96 282.791 137.976C282.275 136.98 282.017 135.888 282.017 134.7C282.017 133.512 282.275 132.426 282.791 131.442C283.319 130.446 284.045 129.66 284.969 129.084C285.905 128.508 286.955 128.22 288.119 128.22C289.283 128.22 290.327 128.508 291.251 129.084C292.187 129.66 292.919 130.446 293.447 131.442C293.975 132.426 294.239 133.512 294.239 134.7ZM291.899 134.7C291.899 133.896 291.737 133.17 291.413 132.522C291.089 131.862 290.639 131.34 290.063 130.956C289.487 130.572 288.839 130.38 288.119 130.38C287.387 130.38 286.733 130.572 286.157 130.956C285.593 131.328 285.149 131.844 284.825 132.504C284.513 133.164 284.357 133.896 284.357 134.7C284.357 135.504 284.513 136.236 284.825 136.896C285.149 137.556 285.593 138.078 286.157 138.462C286.733 138.834 287.387 139.02 288.119 139.02C288.839 139.02 289.487 138.828 290.063 138.444C290.639 138.06 291.089 137.544 291.413 136.896C291.737 136.236 291.899 135.504 291.899 134.7ZM307.231 128.382C307.531 128.382 307.789 128.49 308.005 128.706C308.233 128.91 308.347 129.168 308.347 129.48V139.902C308.347 140.214 308.245 140.478 308.041 140.694C307.837 140.898 307.567 141 307.231 141C306.895 141 306.619 140.898 306.403 140.694C306.199 140.49 306.097 140.226 306.097 139.902V132.648L303.127 137.184C303.007 137.328 302.869 137.448 302.713 137.544C302.557 137.628 302.395 137.664 302.227 137.652C302.071 137.664 301.915 137.628 301.759 137.544C301.603 137.448 301.465 137.328 301.345 137.184L298.375 132.486V139.902C298.375 140.226 298.279 140.49 298.087 140.694C297.895 140.898 297.643 141 297.331 141C297.031 141 296.785 140.898 296.593 140.694C296.401 140.478 296.305 140.214 296.305 139.902V129.48C296.305 129.18 296.413 128.922 296.629 128.706C296.857 128.49 297.127 128.382 297.439 128.382C297.619 128.382 297.799 128.43 297.979 128.526C298.159 128.61 298.297 128.724 298.393 128.868L302.317 134.898L306.349 128.868C306.445 128.724 306.571 128.61 306.727 128.526C306.895 128.43 307.063 128.382 307.231 128.382ZM316.255 128.4C316.867 128.4 317.449 128.586 318.001 128.958C318.553 129.318 318.997 129.81 319.333 130.434C319.669 131.046 319.837 131.718 319.837 132.45C319.837 133.17 319.669 133.842 319.333 134.466C318.997 135.09 318.553 135.588 318.001 135.96C317.449 136.32 316.867 136.5 316.255 136.5H313.123V139.902C313.123 140.226 313.027 140.49 312.835 140.694C312.643 140.898 312.391 141 312.079 141C311.779 141 311.533 140.898 311.341 140.694C311.149 140.478 311.053 140.214 311.053 139.902V129.498C311.053 129.186 311.155 128.928 311.359 128.724C311.575 128.508 311.839 128.4 312.151 128.4H316.255ZM316.255 134.448C316.483 134.448 316.705 134.352 316.921 134.16C317.149 133.968 317.329 133.722 317.461 133.422C317.605 133.11 317.677 132.786 317.677 132.45C317.677 132.114 317.605 131.796 317.461 131.496C317.329 131.184 317.149 130.938 316.921 130.758C316.705 130.566 316.483 130.47 316.255 130.47H313.123V134.448H316.255ZM333.491 134.7C333.491 135.888 333.227 136.98 332.699 137.976C332.171 138.96 331.439 139.74 330.503 140.316C329.579 140.892 328.535 141.18 327.371 141.18C326.207 141.18 325.157 140.892 324.221 140.316C323.297 139.74 322.571 138.96 322.043 137.976C321.527 136.98 321.269 135.888 321.269 134.7C321.269 133.512 321.527 132.426 322.043 131.442C322.571 130.446 323.297 129.66 324.221 129.084C325.157 128.508 326.207 128.22 327.371 128.22C328.535 128.22 329.579 128.508 330.503 129.084C331.439 129.66 332.171 130.446 332.699 131.442C333.227 132.426 333.491 133.512 333.491 134.7ZM331.151 134.7C331.151 133.896 330.989 133.17 330.665 132.522C330.341 131.862 329.891 131.34 329.315 130.956C328.739 130.572 328.091 130.38 327.371 130.38C326.639 130.38 325.985 130.572 325.409 130.956C324.845 131.328 324.401 131.844 324.077 132.504C323.765 133.164 323.609 133.896 323.609 134.7C323.609 135.504 323.765 136.236 324.077 136.896C324.401 137.556 324.845 138.078 325.409 138.462C325.985 138.834 326.639 139.02 327.371 139.02C328.091 139.02 328.739 138.828 329.315 138.444C329.891 138.06 330.341 137.544 330.665 136.896C330.989 136.236 331.151 135.504 331.151 134.7ZM345.115 128.4C345.403 128.4 345.637 128.496 345.817 128.688C345.997 128.88 346.087 129.12 346.087 129.408V139.902C346.087 140.214 345.979 140.478 345.763 140.694C345.559 140.898 345.301 141 344.989 141C344.821 141 344.653 140.976 344.485 140.928C344.329 140.868 344.215 140.79 344.143 140.694L337.537 132.306V139.992C337.537 140.28 337.441 140.52 337.249 140.712C337.069 140.904 336.829 141 336.529 141C336.241 141 336.007 140.904 335.827 140.712C335.647 140.52 335.557 140.28 335.557 139.992V129.498C335.557 129.186 335.659 128.928 335.863 128.724C336.079 128.508 336.343 128.4 336.655 128.4C336.835 128.4 337.009 128.436 337.177 128.508C337.357 128.58 337.489 128.676 337.573 128.796L344.125 137.148V129.408C344.125 129.12 344.215 128.88 344.395 128.688C344.587 128.496 344.827 128.4 345.115 128.4ZM355.921 138.93C356.233 138.93 356.491 139.038 356.695 139.254C356.911 139.458 357.019 139.698 357.019 139.974C357.019 140.274 356.911 140.52 356.695 140.712C356.491 140.904 356.233 141 355.921 141H349.891C349.579 141 349.315 140.898 349.099 140.694C348.895 140.478 348.793 140.214 348.793 139.902V129.498C348.793 129.186 348.895 128.928 349.099 128.724C349.315 128.508 349.579 128.4 349.891 128.4H355.921C356.233 128.4 356.491 128.502 356.695 128.706C356.911 128.898 357.019 129.15 357.019 129.462C357.019 129.762 356.917 130.008 356.713 130.2C356.509 130.38 356.245 130.47 355.921 130.47H351.043V133.53H355.111C355.423 133.53 355.681 133.632 355.885 133.836C356.101 134.028 356.209 134.28 356.209 134.592C356.209 134.892 356.107 135.138 355.903 135.33C355.699 135.51 355.435 135.6 355.111 135.6H351.043V138.93H355.921ZM368.652 128.4C368.94 128.4 369.174 128.496 369.354 128.688C369.534 128.88 369.624 129.12 369.624 129.408V139.902C369.624 140.214 369.516 140.478 369.3 140.694C369.096 140.898 368.838 141 368.526 141C368.358 141 368.19 140.976 368.022 140.928C367.866 140.868 367.752 140.79 367.68 140.694L361.074 132.306V139.992C361.074 140.28 360.978 140.52 360.786 140.712C360.606 140.904 360.366 141 360.066 141C359.778 141 359.544 140.904 359.364 140.712C359.184 140.52 359.094 140.28 359.094 139.992V129.498C359.094 129.186 359.196 128.928 359.4 128.724C359.616 128.508 359.88 128.4 360.192 128.4C360.372 128.4 360.546 128.436 360.714 128.508C360.894 128.58 361.026 128.676 361.11 128.796L367.662 137.148V129.408C367.662 129.12 367.752 128.88 367.932 128.688C368.124 128.496 368.364 128.4 368.652 128.4ZM380.61 128.4C380.934 128.4 381.198 128.496 381.402 128.688C381.606 128.88 381.708 129.132 381.708 129.444C381.708 129.756 381.606 130.008 381.402 130.2C381.198 130.38 380.934 130.47 380.61 130.47H377.784V139.902C377.784 140.214 377.67 140.478 377.442 140.694C377.214 140.898 376.932 141 376.596 141C376.26 141 375.984 140.898 375.768 140.694C375.552 140.478 375.444 140.214 375.444 139.902V130.47H372.618C372.294 130.47 372.03 130.374 371.826 130.182C371.622 129.99 371.52 129.738 371.52 129.426C371.52 129.126 371.622 128.88 371.826 128.688C372.042 128.496 372.306 128.4 372.618 128.4H380.61ZM387.648 141.18C386.784 141.18 386.016 141.072 385.344 140.856C384.672 140.64 384.042 140.274 383.454 139.758C383.13 139.47 382.968 139.152 382.968 138.804C382.968 138.528 383.07 138.288 383.274 138.084C383.478 137.868 383.724 137.76 384.012 137.76C384.24 137.76 384.444 137.832 384.624 137.976C385.104 138.372 385.572 138.66 386.028 138.84C386.484 139.02 387.024 139.11 387.648 139.11C388.32 139.11 388.896 138.96 389.376 138.66C389.868 138.36 390.114 137.988 390.114 137.544C390.114 137.004 389.874 136.584 389.394 136.284C388.914 135.972 388.152 135.738 387.108 135.582C384.48 135.198 383.166 133.974 383.166 131.91C383.166 131.154 383.364 130.5 383.76 129.948C384.156 129.384 384.696 128.958 385.38 128.67C386.064 128.37 386.826 128.22 387.666 128.22C388.422 128.22 389.13 128.334 389.79 128.562C390.462 128.79 391.02 129.09 391.464 129.462C391.812 129.738 391.986 130.056 391.986 130.416C391.986 130.692 391.884 130.938 391.68 131.154C391.476 131.358 391.236 131.46 390.96 131.46C390.78 131.46 390.618 131.406 390.474 131.298C390.162 131.046 389.724 130.818 389.16 130.614C388.608 130.398 388.11 130.29 387.666 130.29C386.91 130.29 386.322 130.434 385.902 130.722C385.494 130.998 385.29 131.364 385.29 131.82C385.29 132.336 385.5 132.726 385.92 132.99C386.352 133.254 387.024 133.47 387.936 133.638C388.968 133.818 389.79 134.052 390.402 134.34C391.026 134.616 391.494 135 391.806 135.492C392.118 135.972 392.274 136.614 392.274 137.418C392.274 138.174 392.058 138.84 391.626 139.416C391.206 139.98 390.642 140.418 389.934 140.73C389.226 141.03 388.464 141.18 387.648 141.18Z" fill="#00C58E"/>
<path d="M602.127 128.4C603.255 128.4 604.221 128.682 605.025 129.246C605.841 129.798 606.459 130.554 606.879 131.514C607.311 132.462 607.527 133.524 607.527 134.7C607.527 135.876 607.311 136.944 606.879 137.904C606.459 138.852 605.841 139.608 605.025 140.172C604.221 140.724 603.255 141 602.127 141H597.825C597.513 141 597.249 140.898 597.033 140.694C596.829 140.478 596.727 140.214 596.727 139.902V129.498C596.727 129.186 596.829 128.928 597.033 128.724C597.249 128.508 597.513 128.4 597.825 128.4H602.127ZM601.947 138.93C603.027 138.93 603.837 138.534 604.377 137.742C604.917 136.938 605.187 135.924 605.187 134.7C605.187 133.476 604.911 132.468 604.359 131.676C603.819 130.872 603.015 130.47 601.947 130.47H598.977V138.93H601.947ZM619.388 139.596C619.448 139.752 619.478 139.896 619.478 140.028C619.478 140.34 619.376 140.598 619.172 140.802C618.968 140.994 618.734 141.09 618.47 141.09C618.254 141.09 618.056 141.024 617.876 140.892C617.708 140.76 617.576 140.58 617.48 140.352L616.544 138.174H611.18L610.244 140.37C610.16 140.598 610.028 140.778 609.848 140.91C609.68 141.03 609.494 141.09 609.29 141.09C608.978 141.09 608.738 141.006 608.57 140.838C608.414 140.67 608.336 140.442 608.336 140.154C608.336 140.046 608.354 139.932 608.39 139.812L612.872 129.048C612.968 128.808 613.112 128.622 613.304 128.49C613.496 128.358 613.712 128.304 613.952 128.328C614.168 128.328 614.366 128.394 614.546 128.526C614.738 128.646 614.876 128.82 614.96 129.048L619.388 139.596ZM615.662 136.104L613.844 131.892L612.062 136.104H615.662ZM628.386 128.4C628.71 128.4 628.974 128.496 629.178 128.688C629.382 128.88 629.484 129.132 629.484 129.444C629.484 129.756 629.382 130.008 629.178 130.2C628.974 130.38 628.71 130.47 628.386 130.47H625.56V139.902C625.56 140.214 625.446 140.478 625.218 140.694C624.99 140.898 624.708 141 624.372 141C624.036 141 623.76 140.898 623.544 140.694C623.328 140.478 623.22 140.214 623.22 139.902V130.47H620.394C620.07 130.47 619.806 130.374 619.602 130.182C619.398 129.99 619.296 129.738 619.296 129.426C619.296 129.126 619.398 128.88 619.602 128.688C619.818 128.496 620.082 128.4 620.394 128.4H628.386ZM640.359 139.596C640.419 139.752 640.449 139.896 640.449 140.028C640.449 140.34 640.347 140.598 640.143 140.802C639.939 140.994 639.705 141.09 639.441 141.09C639.225 141.09 639.027 141.024 638.847 140.892C638.679 140.76 638.547 140.58 638.451 140.352L637.515 138.174H632.151L631.215 140.37C631.131 140.598 630.999 140.778 630.819 140.91C630.651 141.03 630.465 141.09 630.261 141.09C629.949 141.09 629.709 141.006 629.541 140.838C629.385 140.67 629.307 140.442 629.307 140.154C629.307 140.046 629.325 139.932 629.361 139.812L633.843 129.048C633.939 128.808 634.083 128.622 634.275 128.49C634.467 128.358 634.683 128.304 634.923 128.328C635.139 128.328 635.337 128.394 635.517 128.526C635.709 128.646 635.847 128.82 635.931 129.048L640.359 139.596ZM636.633 136.104L634.815 131.892L633.033 136.104H636.633Z" fill="#00C58E"/>
</g>
<defs>
<clipPath id="clip0">
<rect width="663" height="152" fill="white"/>
</clipPath>
</defs>
</svg>
