<svg width="298" height="45" viewBox="0 0 298 45" fill="none" xmlns="http://www.w3.org/2000/svg">
<path d="M12.636 16.38C15.084 16.38 16.776 17.112 17.712 18.576C18.648 20.016 19.116 22.02 19.116 24.588V33.804C19.116 34.428 18.912 34.956 18.504 35.388C18.096 35.796 17.58 36 16.956 36C16.332 36 15.816 35.796 15.408 35.388C15 34.956 14.796 34.428 14.796 33.804V24.588C14.796 23.268 14.52 22.236 13.968 21.492C13.416 20.724 12.468 20.34 11.124 20.34C9.73203 20.34 8.64003 20.748 7.84803 21.564C7.05603 22.356 6.66003 23.364 6.66003 24.588V33.804C6.66003 34.428 6.45603 34.956 6.04803 35.388C5.64003 35.796 5.12403 36 4.50003 36C3.87603 36 3.36003 35.796 2.95203 35.388C2.54403 34.956 2.34003 34.428 2.34003 33.804V18.936C2.34003 18.312 2.54403 17.796 2.95203 17.388C3.36003 16.956 3.87603 16.74 4.50003 16.74C5.12403 16.74 5.64003 16.956 6.04803 17.388C6.45603 17.796 6.66003 18.312 6.66003 18.936V19.548C7.30803 18.684 8.14803 17.94 9.18003 17.316C10.236 16.692 11.388 16.38 12.636 16.38Z" fill="white"/>
<path d="M38.0773 16.74C38.7013 16.74 39.2173 16.956 39.6253 17.388C40.0333 17.796 40.2373 18.312 40.2373 18.936V28.08C40.2373 30.672 39.5173 32.7 38.0773 34.164C36.6613 35.628 34.6333 36.36 31.9933 36.36C29.3533 36.36 27.3253 35.628 25.9093 34.164C24.4933 32.7 23.7853 30.672 23.7853 28.08V18.936C23.7853 18.312 23.9893 17.796 24.3973 17.388C24.8053 16.956 25.3213 16.74 25.9453 16.74C26.5693 16.74 27.0853 16.956 27.4933 17.388C27.9013 17.796 28.1053 18.312 28.1053 18.936V28.08C28.1053 29.544 28.4293 30.636 29.0773 31.356C29.7253 32.052 30.6973 32.4 31.9933 32.4C33.3133 32.4 34.2973 32.052 34.9453 31.356C35.5933 30.636 35.9173 29.544 35.9173 28.08V18.936C35.9173 18.312 36.1213 17.796 36.5293 17.388C36.9373 16.956 37.4533 16.74 38.0773 16.74Z" fill="white"/>
<path d="M59.0982 32.58C59.4102 32.964 59.5662 33.396 59.5662 33.876C59.5662 34.476 59.3382 34.992 58.8822 35.424C58.4262 35.856 57.9222 36.072 57.3702 36.072C56.6742 36.072 56.0862 35.76 55.6062 35.136L51.2862 29.772L47.0742 35.136C46.8582 35.424 46.5942 35.652 46.2822 35.82C45.9942 35.964 45.6822 36.036 45.3462 36.036C44.8422 36.036 44.3622 35.844 43.9062 35.46C43.4502 35.076 43.2222 34.632 43.2222 34.128C43.2222 33.648 43.4022 33.192 43.7622 32.76L48.7662 26.64L43.5822 20.196C43.2702 19.812 43.1142 19.38 43.1142 18.9C43.1142 18.3 43.3302 17.796 43.7622 17.388C44.2182 16.956 44.7342 16.74 45.3102 16.74C46.0062 16.74 46.5942 17.04 47.0742 17.64L51.5022 23.148L55.6062 17.712C56.0622 17.064 56.6382 16.74 57.3342 16.74C57.9102 16.74 58.3902 16.944 58.7742 17.352C59.1822 17.736 59.3862 18.18 59.3862 18.684C59.3862 19.212 59.2182 19.68 58.8822 20.088L53.9142 26.136L59.0982 32.58Z" fill="white"/>
<path d="M73.5382 31.932C73.8742 31.932 74.1742 32.1 74.4382 32.436C74.7262 32.748 74.8702 33.168 74.8702 33.696C74.8702 34.344 74.5102 34.896 73.7902 35.352C73.0942 35.784 72.3022 36 71.4142 36C69.9262 36 68.6662 35.688 67.6342 35.064C66.6262 34.416 66.1222 33.06 66.1222 30.996V21.06H64.4662C63.8902 21.06 63.4102 20.868 63.0262 20.484C62.6422 20.1 62.4502 19.62 62.4502 19.044C62.4502 18.492 62.6422 18.036 63.0262 17.676C63.4102 17.292 63.8902 17.1 64.4662 17.1H66.1222V14.796C66.1222 14.172 66.3262 13.656 66.7342 13.248C67.1662 12.816 67.6942 12.6 68.3182 12.6C68.9182 12.6 69.4222 12.816 69.8302 13.248C70.2382 13.656 70.4422 14.172 70.4422 14.796V17.1H72.9982C73.5742 17.1 74.0542 17.292 74.4382 17.676C74.8222 18.06 75.0142 18.54 75.0142 19.116C75.0142 19.668 74.8222 20.136 74.4382 20.52C74.0542 20.88 73.5742 21.06 72.9982 21.06H70.4422V30.816C70.4422 31.32 70.5742 31.692 70.8382 31.932C71.1022 32.148 71.4622 32.256 71.9182 32.256C72.1102 32.256 72.3742 32.208 72.7102 32.112C72.9982 31.992 73.2742 31.932 73.5382 31.932Z" fill="white"/>
<path d="M80.6367 27.108C80.0127 27.108 79.4847 26.904 79.0527 26.496C78.6447 26.088 78.4407 25.572 78.4407 24.948C78.4407 24.348 78.6447 23.844 79.0527 23.436C79.4847 23.028 80.0127 22.824 80.6367 22.824H86.9007C87.5246 22.824 88.0407 23.04 88.4487 23.472C88.8807 23.88 89.0966 24.396 89.0966 25.02C89.0966 25.62 88.8807 26.124 88.4487 26.532C88.0407 26.916 87.5246 27.108 86.9007 27.108H80.6367Z" fill="white"/>
<path d="M115.466 16.38C117.842 16.38 119.486 17.112 120.398 18.576C121.31 20.016 121.766 22.02 121.766 24.588V33.804C121.766 34.428 121.562 34.956 121.154 35.388C120.746 35.796 120.23 36 119.606 36C118.982 36 118.466 35.796 118.058 35.388C117.65 34.956 117.446 34.428 117.446 33.804V24.588C117.446 23.268 117.182 22.236 116.654 21.492C116.15 20.724 115.25 20.34 113.954 20.34C112.61 20.34 111.554 20.748 110.786 21.564C110.042 22.356 109.67 23.364 109.67 24.588V33.804C109.67 34.428 109.466 34.956 109.058 35.388C108.65 35.796 108.134 36 107.51 36C106.886 36 106.37 35.796 105.962 35.388C105.554 34.956 105.35 34.428 105.35 33.804V24.588C105.35 23.268 105.086 22.236 104.558 21.492C104.054 20.724 103.154 20.34 101.858 20.34C100.514 20.34 99.4581 20.748 98.6901 21.564C97.9461 22.356 97.5741 23.364 97.5741 24.588V33.804C97.5741 34.428 97.3701 34.956 96.9621 35.388C96.5541 35.796 96.0381 36 95.4141 36C94.7901 36 94.2741 35.796 93.8661 35.388C93.4581 34.956 93.2541 34.428 93.2541 33.804V18.936C93.2541 18.312 93.4581 17.796 93.8661 17.388C94.2741 16.956 94.7901 16.74 95.4141 16.74C96.0381 16.74 96.5541 16.956 96.9621 17.388C97.3701 17.796 97.5741 18.312 97.5741 18.936V19.512C98.2221 18.648 99.0381 17.916 100.022 17.316C101.03 16.692 102.146 16.38 103.37 16.38C106.394 16.38 108.326 17.7 109.166 20.34C109.718 19.332 110.546 18.42 111.65 17.604C112.778 16.788 114.05 16.38 115.466 16.38Z" fill="#00C58E"/>
<path d="M140.734 16.74C141.358 16.74 141.874 16.956 142.282 17.388C142.69 17.796 142.894 18.312 142.894 18.936V28.08C142.894 30.672 142.174 32.7 140.734 34.164C139.318 35.628 137.29 36.36 134.65 36.36C132.01 36.36 129.982 35.628 128.566 34.164C127.15 32.7 126.442 30.672 126.442 28.08V18.936C126.442 18.312 126.646 17.796 127.054 17.388C127.462 16.956 127.978 16.74 128.602 16.74C129.226 16.74 129.742 16.956 130.15 17.388C130.558 17.796 130.762 18.312 130.762 18.936V28.08C130.762 29.544 131.086 30.636 131.734 31.356C132.382 32.052 133.354 32.4 134.65 32.4C135.97 32.4 136.954 32.052 137.602 31.356C138.25 30.636 138.574 29.544 138.574 28.08V18.936C138.574 18.312 138.778 17.796 139.186 17.388C139.594 16.956 140.11 16.74 140.734 16.74Z" fill="#00C58E"/>
<path d="M152.251 33.804C152.251 34.428 152.034 34.956 151.602 35.388C151.194 35.796 150.679 36 150.055 36C149.455 36 148.95 35.796 148.542 35.388C148.134 34.956 147.93 34.428 147.93 33.804V11.556C147.93 10.932 148.134 10.416 148.542 10.008C148.974 9.57598 149.502 9.35999 150.126 9.35999C150.726 9.35999 151.231 9.57598 151.639 10.008C152.047 10.416 152.251 10.932 152.251 11.556V33.804Z" fill="#00C58E"/>
<path d="M166.456 31.932C166.792 31.932 167.092 32.1 167.356 32.436C167.644 32.748 167.788 33.168 167.788 33.696C167.788 34.344 167.428 34.896 166.708 35.352C166.012 35.784 165.22 36 164.332 36C162.844 36 161.584 35.688 160.552 35.064C159.544 34.416 159.04 33.06 159.04 30.996V21.06H157.384C156.808 21.06 156.328 20.868 155.944 20.484C155.56 20.1 155.368 19.62 155.368 19.044C155.368 18.492 155.56 18.036 155.944 17.676C156.328 17.292 156.808 17.1 157.384 17.1H159.04V14.796C159.04 14.172 159.244 13.656 159.652 13.248C160.084 12.816 160.612 12.6 161.236 12.6C161.836 12.6 162.34 12.816 162.748 13.248C163.156 13.656 163.36 14.172 163.36 14.796V17.1H165.916C166.492 17.1 166.972 17.292 167.356 17.676C167.74 18.06 167.932 18.54 167.932 19.116C167.932 19.668 167.74 20.136 167.356 20.52C166.972 20.88 166.492 21.06 165.916 21.06H163.36V30.816C163.36 31.32 163.492 31.692 163.756 31.932C164.02 32.148 164.38 32.256 164.836 32.256C165.028 32.256 165.292 32.208 165.628 32.112C165.916 31.992 166.192 31.932 166.456 31.932Z" fill="#00C58E"/>
<path d="M175.967 33.804C175.967 34.428 175.763 34.956 175.355 35.388C174.947 35.796 174.431 36 173.807 36C173.183 36 172.667 35.796 172.259 35.388C171.851 34.956 171.647 34.428 171.647 33.804V18.936C171.647 18.312 171.851 17.796 172.259 17.388C172.667 16.956 173.183 16.74 173.807 16.74C174.431 16.74 174.947 16.956 175.355 17.388C175.763 17.796 175.967 18.312 175.967 18.936V33.804ZM173.771 14.4C172.955 14.4 172.379 14.268 172.043 14.004C171.707 13.74 171.539 13.272 171.539 12.6V11.916C171.539 11.244 171.719 10.776 172.079 10.512C172.439 10.248 173.015 10.116 173.807 10.116C174.647 10.116 175.235 10.248 175.571 10.512C175.907 10.776 176.075 11.244 176.075 11.916V12.6C176.075 13.296 175.895 13.776 175.535 14.04C175.199 14.28 174.611 14.4 173.771 14.4Z" fill="#00C58E"/>
<path d="M182.062 27.108C181.438 27.108 180.91 26.904 180.478 26.496C180.07 26.088 179.866 25.572 179.866 24.948C179.866 24.348 180.07 23.844 180.478 23.436C180.91 23.028 181.438 22.824 182.062 22.824H188.326C188.95 22.824 189.466 23.04 189.874 23.472C190.306 23.88 190.522 24.396 190.522 25.02C190.522 25.62 190.306 26.124 189.874 26.532C189.466 26.916 188.95 27.108 188.326 27.108H182.062Z" fill="#00C58E"/>
<path d="M203.068 16.38C205.108 16.38 206.752 16.704 208 17.352C209.248 17.976 209.872 18.816 209.872 19.872C209.872 20.4 209.716 20.868 209.404 21.276C209.092 21.66 208.684 21.852 208.18 21.852C207.796 21.852 207.484 21.804 207.244 21.708C207.004 21.588 206.764 21.444 206.524 21.276C206.308 21.084 206.092 20.928 205.876 20.808C205.636 20.688 205.276 20.58 204.796 20.484C204.34 20.388 203.968 20.34 203.68 20.34C201.88 20.34 200.464 20.904 199.432 22.032C198.424 23.136 197.92 24.588 197.92 26.388C197.92 28.116 198.436 29.556 199.468 30.708C200.5 31.836 201.82 32.4 203.428 32.4C204.604 32.4 205.48 32.256 206.056 31.968C206.2 31.896 206.392 31.776 206.632 31.608C206.896 31.416 207.136 31.272 207.352 31.176C207.568 31.08 207.832 31.032 208.144 31.032C208.744 31.032 209.212 31.224 209.548 31.608C209.908 31.992 210.088 32.484 210.088 33.084C210.088 33.66 209.752 34.2 209.08 34.704C208.408 35.208 207.52 35.616 206.416 35.928C205.312 36.216 204.136 36.36 202.888 36.36C201.04 36.36 199.408 35.928 197.992 35.064C196.6 34.2 195.52 33.012 194.752 31.5C193.984 29.964 193.6 28.26 193.6 26.388C193.6 24.444 193.996 22.716 194.788 21.204C195.604 19.692 196.732 18.516 198.172 17.676C199.612 16.812 201.244 16.38 203.068 16.38Z" fill="#00C58E"/>
<path d="M228.795 16.38C229.419 16.38 229.935 16.584 230.343 16.992C230.751 17.4 230.955 17.928 230.955 18.576V33.804C230.955 34.428 230.751 34.956 230.343 35.388C229.935 35.796 229.419 36 228.795 36C228.171 36 227.655 35.796 227.247 35.388C226.863 34.98 226.659 34.464 226.635 33.84C226.035 34.536 225.219 35.136 224.187 35.64C223.179 36.12 222.111 36.36 220.983 36.36C219.327 36.36 217.827 35.94 216.483 35.1C215.139 34.236 214.071 33.048 213.279 31.536C212.511 30.024 212.127 28.308 212.127 26.388C212.127 24.468 212.511 22.752 213.279 21.24C214.047 19.704 215.091 18.516 216.411 17.676C217.755 16.812 219.231 16.38 220.839 16.38C221.991 16.38 223.071 16.596 224.079 17.028C225.087 17.436 225.939 17.964 226.635 18.612V18.576C226.635 17.952 226.839 17.436 227.247 17.028C227.655 16.596 228.171 16.38 228.795 16.38ZM221.523 32.4C223.083 32.4 224.355 31.836 225.339 30.708C226.323 29.556 226.815 28.116 226.815 26.388C226.815 24.66 226.323 23.22 225.339 22.068C224.355 20.916 223.083 20.34 221.523 20.34C219.987 20.34 218.727 20.916 217.743 22.068C216.759 23.22 216.267 24.66 216.267 26.388C216.267 28.116 216.747 29.556 217.707 30.708C218.691 31.836 219.963 32.4 221.523 32.4Z" fill="#00C58E"/>
<path d="M244.025 16.38C246.065 16.38 247.709 16.704 248.957 17.352C250.205 17.976 250.829 18.816 250.829 19.872C250.829 20.4 250.673 20.868 250.361 21.276C250.049 21.66 249.641 21.852 249.137 21.852C248.753 21.852 248.441 21.804 248.201 21.708C247.961 21.588 247.721 21.444 247.481 21.276C247.265 21.084 247.049 20.928 246.833 20.808C246.593 20.688 246.233 20.58 245.753 20.484C245.297 20.388 244.925 20.34 244.637 20.34C242.837 20.34 241.421 20.904 240.389 22.032C239.381 23.136 238.877 24.588 238.877 26.388C238.877 28.116 239.393 29.556 240.425 30.708C241.457 31.836 242.777 32.4 244.385 32.4C245.561 32.4 246.437 32.256 247.013 31.968C247.157 31.896 247.349 31.776 247.589 31.608C247.853 31.416 248.093 31.272 248.309 31.176C248.525 31.08 248.789 31.032 249.101 31.032C249.701 31.032 250.169 31.224 250.505 31.608C250.865 31.992 251.045 32.484 251.045 33.084C251.045 33.66 250.709 34.2 250.037 34.704C249.365 35.208 248.477 35.616 247.373 35.928C246.269 36.216 245.093 36.36 243.845 36.36C241.997 36.36 240.365 35.928 238.949 35.064C237.557 34.2 236.477 33.012 235.709 31.5C234.941 29.964 234.557 28.26 234.557 26.388C234.557 24.444 234.953 22.716 235.745 21.204C236.561 19.692 237.689 18.516 239.129 17.676C240.569 16.812 242.201 16.38 244.025 16.38Z" fill="#00C58E"/>
<path d="M264.28 16.38C266.656 16.38 268.3 17.112 269.212 18.576C270.124 20.016 270.58 22.02 270.58 24.588V33.804C270.58 34.428 270.376 34.956 269.968 35.388C269.56 35.796 269.044 36 268.42 36C267.796 36 267.28 35.796 266.872 35.388C266.464 34.956 266.26 34.428 266.26 33.804V24.588C266.26 23.268 265.996 22.236 265.468 21.492C264.964 20.724 264.064 20.34 262.768 20.34C261.424 20.34 260.368 20.748 259.6 21.564C258.856 22.356 258.484 23.364 258.484 24.588V33.804C258.484 34.428 258.28 34.956 257.872 35.388C257.464 35.796 256.948 36 256.324 36C255.7 36 255.184 35.796 254.776 35.388C254.368 34.956 254.164 34.428 254.164 33.804V11.556C254.164 10.932 254.368 10.416 254.776 10.008C255.184 9.57598 255.7 9.35999 256.324 9.35999C256.948 9.35999 257.464 9.57598 257.872 10.008C258.28 10.416 258.484 10.932 258.484 11.556V19.512C259.132 18.648 259.948 17.916 260.932 17.316C261.94 16.692 263.056 16.38 264.28 16.38Z" fill="#00C58E"/>
<path d="M292.538 25.92C292.514 26.496 292.286 26.964 291.854 27.324C291.422 27.684 290.918 27.864 290.342 27.864H278.462C278.75 29.28 279.41 30.396 280.442 31.212C281.474 32.004 282.638 32.4 283.934 32.4C284.918 32.4 285.686 32.316 286.238 32.148C286.79 31.956 287.222 31.764 287.534 31.572C287.87 31.356 288.098 31.212 288.218 31.14C288.65 30.924 289.058 30.816 289.442 30.816C289.946 30.816 290.378 30.996 290.738 31.356C291.098 31.716 291.278 32.136 291.278 32.616C291.278 33.264 290.942 33.852 290.27 34.38C289.598 34.932 288.698 35.4 287.57 35.784C286.442 36.168 285.302 36.36 284.15 36.36C282.134 36.36 280.37 35.94 278.858 35.1C277.37 34.26 276.218 33.108 275.402 31.644C274.586 30.156 274.178 28.488 274.178 26.64C274.178 24.576 274.61 22.764 275.474 21.204C276.338 19.644 277.478 18.456 278.894 17.64C280.31 16.8 281.822 16.38 283.43 16.38C285.014 16.38 286.502 16.812 287.894 17.676C289.31 18.54 290.438 19.704 291.278 21.168C292.118 22.632 292.538 24.216 292.538 25.92ZM283.43 20.34C280.646 20.34 279.002 21.648 278.498 24.264H287.93V24.012C287.834 23.004 287.342 22.14 286.454 21.42C285.566 20.7 284.558 20.34 283.43 20.34Z" fill="#00C58E"/>
</svg>
