<svg width="312" height="312" viewBox="0 0 312 312" fill="none" xmlns="http://www.w3.org/2000/svg">
<g clip-path="url(#clip0_1_2)">
<path d="M104.995 22.815V45.5691H130.138V122.228" stroke="#63C197" stroke-width="1.97" stroke-linecap="round" stroke-linejoin="round"/>
<path d="M211.587 14.43V35.9897H188.833V121.022" stroke="#63C197" stroke-width="1.97" stroke-linecap="round" stroke-linejoin="round"/>
<path d="M158.888 26.4103V123.423" stroke="#63C197" stroke-width="1.97" stroke-linecap="round" stroke-linejoin="round"/>
<path d="M104.995 32.3944C110.286 32.3944 114.575 28.1055 114.575 22.815C114.575 17.5245 110.286 13.2356 104.995 13.2356C99.7048 13.2356 95.416 17.5245 95.416 22.815C95.416 28.1055 99.7048 32.3944 104.995 32.3944Z" fill="#90E3BE" stroke="#63C197" stroke-width="1.97" stroke-linecap="round" stroke-linejoin="round"/>
<path d="M158.888 35.9897C164.179 35.9897 168.468 31.7008 168.468 26.4103C168.468 21.1198 164.179 16.8309 158.888 16.8309C153.598 16.8309 149.309 21.1198 149.309 26.4103C149.309 31.7008 153.598 35.9897 158.888 35.9897Z" fill="#90E3BE" stroke="#63C197" stroke-width="1.97" stroke-linecap="round" stroke-linejoin="round"/>
<path d="M211.587 24.0094C216.878 24.0094 221.167 19.7205 221.167 14.43C221.167 9.13945 216.878 4.85062 211.587 4.85062C206.297 4.85062 202.008 9.13945 202.008 14.43C202.008 19.7205 206.297 24.0094 211.587 24.0094Z" fill="#90E3BE" stroke="#63C197" stroke-width="1.97" stroke-linecap="round" stroke-linejoin="round"/>
<path d="M287.747 56.5865V183.544H268.588V160.79H231.453" stroke="#63C197" stroke-width="1.97" stroke-linecap="round" stroke-linejoin="round"/>
<path d="M302.116 85.3369V190.734H254.219V167.968" stroke="#63C197" stroke-width="1.97" stroke-linecap="round" stroke-linejoin="round"/>
<path d="M279.362 171.563H282.957" stroke="#B1FFDC" stroke-opacity="0.27" stroke-width="1.97" stroke-linecap="round" stroke-linejoin="round"/>
<path d="M279.362 161.984H282.957" stroke="#B1FFDC" stroke-opacity="0.27" stroke-width="1.97" stroke-linecap="round" stroke-linejoin="round"/>
<path d="M279.362 152.405H282.957" stroke="#B1FFDC" stroke-opacity="0.27" stroke-width="1.97" stroke-linecap="round" stroke-linejoin="round"/>
<path d="M279.362 142.825H282.957" stroke="#B1FFDC" stroke-opacity="0.27" stroke-width="1.97" stroke-linecap="round" stroke-linejoin="round"/>
<path d="M279.362 133.234H282.957" stroke="#B1FFDC" stroke-opacity="0.27" stroke-width="1.97" stroke-linecap="round" stroke-linejoin="round"/>
<path d="M279.362 123.654H282.957" stroke="#B1FFDC" stroke-opacity="0.27" stroke-width="1.97" stroke-linecap="round" stroke-linejoin="round"/>
<path d="M279.362 114.075H282.957" stroke="#B1FFDC" stroke-opacity="0.27" stroke-width="1.97" stroke-linecap="round" stroke-linejoin="round"/>
<path d="M279.362 104.496H282.957" stroke="#B1FFDC" stroke-opacity="0.27" stroke-width="1.97" stroke-linecap="round" stroke-linejoin="round"/>
<path d="M279.362 94.9163H282.957" stroke="#B1FFDC" stroke-opacity="0.27" stroke-width="1.97" stroke-linecap="round" stroke-linejoin="round"/>
<path d="M279.362 85.3247H282.957" stroke="#B1FFDC" stroke-opacity="0.27" stroke-width="1.97" stroke-linecap="round" stroke-linejoin="round"/>
<path d="M279.362 75.7453H282.957" stroke="#B1FFDC" stroke-opacity="0.27" stroke-width="1.97" stroke-linecap="round" stroke-linejoin="round"/>
<path d="M279.362 66.166H282.957" stroke="#B1FFDC" stroke-opacity="0.27" stroke-width="1.97" stroke-linecap="round" stroke-linejoin="round"/>
<path d="M302.116 87.7256C305.421 87.7256 308.1 85.0465 308.1 81.7416C308.1 78.4367 305.421 75.7575 302.116 75.7575C298.811 75.7575 296.132 78.4367 296.132 81.7416C296.132 85.0465 298.811 87.7256 302.116 87.7256Z" fill="#B1FFDC" fill-opacity="0.27"/>
<path d="M287.747 60.1697C291.052 60.1697 293.731 57.4905 293.731 54.1856C293.731 50.8807 291.052 48.2016 287.747 48.2016C284.442 48.2016 281.763 50.8807 281.763 54.1856C281.763 57.4905 284.442 60.1697 287.747 60.1697Z" fill="#B1FFDC" fill-opacity="0.27"/>
<path d="M188.333 242.227H241.044V290.136H278.168V276.961" stroke="#63C197" stroke-width="1.97" stroke-linecap="round" stroke-linejoin="round"/>
<path d="M187.139 248.211C190.444 248.211 193.123 245.531 193.123 242.227C193.123 238.922 190.444 236.242 187.139 236.242C183.834 236.242 181.155 238.922 181.155 242.227C181.155 245.531 183.834 248.211 187.139 248.211Z" fill="#90E3BE" stroke="#63C197" stroke-width="1.97" stroke-linecap="round" stroke-linejoin="round"/>
<path d="M188.333 267.382H241.032" stroke="#63C197" stroke-width="1.97" stroke-linecap="round" stroke-linejoin="round"/>
<path d="M187.139 273.366C190.444 273.366 193.123 270.686 193.123 267.382C193.123 264.077 190.444 261.397 187.139 261.397C183.834 261.397 181.155 264.077 181.155 267.382C181.155 270.686 183.834 273.366 187.139 273.366Z" fill="#90E3BE" stroke="#63C197" stroke-width="1.97" stroke-linecap="round" stroke-linejoin="round"/>
<path d="M304.517 223.031V273.341C304.517 277.96 292.183 281.714 276.973 281.714C261.763 281.714 249.417 277.96 249.417 273.341V223.031H304.517Z" fill="#B1FFDC" fill-opacity="0.27"/>
<path d="M276.973 231.453C292.185 231.453 304.517 227.699 304.517 223.068C304.517 218.437 292.185 214.683 276.973 214.683C261.761 214.683 249.429 218.437 249.429 223.068C249.429 227.699 261.761 231.453 276.973 231.453Z" fill="#B1FFDC" fill-opacity="0.27"/>
<path d="M276.973 231.453C292.185 231.453 304.517 227.699 304.517 223.068C304.517 218.437 292.185 214.683 276.973 214.683C261.761 214.683 249.429 218.437 249.429 223.068C249.429 227.699 261.761 231.453 276.973 231.453Z" stroke="#63C197" stroke-width="1.97" stroke-linecap="round" stroke-linejoin="round"/>
<path d="M304.517 239.838C304.517 244.469 292.183 248.223 276.973 248.223C261.763 248.223 249.417 244.469 249.417 239.838" stroke="#63C197" stroke-width="1.97" stroke-linecap="round" stroke-linejoin="round"/>
<path d="M304.517 256.608C304.517 261.239 292.183 264.993 276.973 264.993C261.763 264.993 249.417 261.239 249.417 256.608" stroke="#63C197" stroke-width="1.97" stroke-linecap="round" stroke-linejoin="round"/>
<path d="M304.517 223.031V273.341C304.517 277.96 292.183 281.714 276.973 281.714C261.763 281.714 249.417 277.96 249.417 273.341V223.031" stroke="#63C197" stroke-width="1.97" stroke-linecap="round" stroke-linejoin="round"/>
<path d="M103.301 298.545C152.922 298.545 193.147 258.319 193.147 208.699C193.147 159.078 152.922 118.852 103.301 118.852C53.6805 118.852 13.455 159.078 13.455 208.699C13.455 258.319 53.6805 298.545 103.301 298.545Z" fill="#B1FFDC" fill-opacity="0.27"/>
<path d="M134.392 239.789C126.148 248.029 114.969 252.658 103.313 252.658C91.6576 252.658 80.4789 248.029 72.2353 239.789" stroke="#63C197" stroke-width="1.97" stroke-linecap="round" stroke-linejoin="round"/>
<path d="M72.2109 177.608C80.4546 169.368 91.6333 164.739 103.289 164.739C114.945 164.739 126.124 169.368 134.367 177.608" stroke="#63C197" stroke-width="1.97" stroke-linecap="round" stroke-linejoin="round"/>
<path d="M103.301 216.34C107.522 216.34 110.943 212.919 110.943 208.699C110.943 204.478 107.522 201.057 103.301 201.057C99.0809 201.057 95.6597 204.478 95.6597 208.699C95.6597 212.919 99.0809 216.34 103.301 216.34Z" stroke="#63C197" stroke-width="1.97" stroke-linecap="round" stroke-linejoin="round"/>
<path d="M173.599 138.401L160.071 151.917" stroke="#63C197" stroke-width="1.97" stroke-linecap="round" stroke-linejoin="round"/>
<path d="M46.5197 265.468L33.0038 278.984" stroke="#63C197" stroke-width="1.97" stroke-linecap="round" stroke-linejoin="round"/>
<path d="M173.599 278.984L160.071 265.468" stroke="#63C197" stroke-width="1.97" stroke-linecap="round" stroke-linejoin="round"/>
<path d="M102.619 260.593V241.471" stroke="#63C197" stroke-width="1.97" stroke-linecap="round" stroke-linejoin="round"/>
<path d="M102.619 174.562V155.452" stroke="#63C197" stroke-width="1.97" stroke-linecap="round" stroke-linejoin="round"/>
<path d="M50.0541 208.016H69.1641" stroke="#63C197" stroke-width="1.97" stroke-linecap="round" stroke-linejoin="round"/>
<path d="M136.086 208.016H155.196" stroke="#63C197" stroke-width="1.97" stroke-linecap="round" stroke-linejoin="round"/>
<path d="M46.5197 151.917L33.0038 138.401" stroke="#63C197" stroke-width="1.97" stroke-linecap="round" stroke-linejoin="round"/>
<path d="M3.88782 208.699H23.01" stroke="#63C197" stroke-width="1.97" stroke-linecap="round" stroke-linejoin="round"/>
<path d="M183.592 208.699H202.715" stroke="#63C197" stroke-width="1.97" stroke-linecap="round" stroke-linejoin="round"/>
<path d="M3.88782 208.699H23.01" stroke="#63C197" stroke-width="1.97" stroke-linecap="round" stroke-linejoin="round"/>
<path d="M183.592 208.699H202.715" stroke="#63C197" stroke-width="1.97" stroke-linecap="round" stroke-linejoin="round"/>
<path d="M103.301 109.285V128.407" stroke="#63C197" stroke-width="1.97" stroke-linecap="round" stroke-linejoin="round"/>
<path d="M103.301 288.99V308.1" stroke="#63C197" stroke-width="1.97" stroke-linecap="round" stroke-linejoin="round"/>
<path d="M53.2837 260.63C54.3405 260.63 55.1972 259.773 55.1972 258.716C55.1972 257.659 54.3405 256.803 53.2837 256.803C52.227 256.803 51.3703 257.659 51.3703 258.716C51.3703 259.773 52.227 260.63 53.2837 260.63Z" fill="#63C197"/>
<path d="M58.695 255.218C59.7518 255.218 60.6084 254.362 60.6084 253.305C60.6084 252.248 59.7518 251.392 58.695 251.392C57.6382 251.392 56.7816 252.248 56.7816 253.305C56.7816 254.362 57.6382 255.218 58.695 255.218Z" fill="#63C197"/>
<path d="M64.0941 249.807C65.1508 249.807 66.0075 248.951 66.0075 247.894C66.0075 246.837 65.1508 245.98 64.0941 245.98C63.0373 245.98 62.1806 246.837 62.1806 247.894C62.1806 248.951 63.0373 249.807 64.0941 249.807Z" fill="#63C197"/>
<path d="M141.156 172.758C142.212 172.758 143.069 171.901 143.069 170.844C143.069 169.788 142.212 168.931 141.156 168.931C140.099 168.931 139.242 169.788 139.242 170.844C139.242 171.901 140.099 172.758 141.156 172.758Z" fill="#63C197"/>
<path d="M146.555 167.347C147.611 167.347 148.468 166.49 148.468 165.433C148.468 164.376 147.611 163.52 146.555 163.52C145.498 163.52 144.641 164.376 144.641 165.433C144.641 166.49 145.498 167.347 146.555 167.347Z" fill="#63C197"/>
<path d="M151.966 161.948C153.023 161.948 153.879 161.091 153.879 160.034C153.879 158.977 153.023 158.121 151.966 158.121C150.909 158.121 150.052 158.977 150.052 160.034C150.052 161.091 150.909 161.948 151.966 161.948Z" fill="#63C197"/>
<path d="M53.2837 161.948C54.3405 161.948 55.1972 161.091 55.1972 160.034C55.1972 158.977 54.3405 158.121 53.2837 158.121C52.227 158.121 51.3703 158.977 51.3703 160.034C51.3703 161.091 52.227 161.948 53.2837 161.948Z" fill="#63C197"/>
<path d="M58.695 167.347C59.7518 167.347 60.6084 166.49 60.6084 165.433C60.6084 164.376 59.7518 163.52 58.695 163.52C57.6382 163.52 56.7816 164.376 56.7816 165.433C56.7816 166.49 57.6382 167.347 58.695 167.347Z" fill="#63C197"/>
<path d="M64.0941 172.758C65.1508 172.758 66.0075 171.901 66.0075 170.844C66.0075 169.788 65.1508 168.931 64.0941 168.931C63.0373 168.931 62.1806 169.788 62.1806 170.844C62.1806 171.901 63.0373 172.758 64.0941 172.758Z" fill="#63C197"/>
<path d="M141.156 249.807C142.212 249.807 143.069 248.951 143.069 247.894C143.069 246.837 142.212 245.98 141.156 245.98C140.099 245.98 139.242 246.837 139.242 247.894C139.242 248.951 140.099 249.807 141.156 249.807Z" fill="#63C197"/>
<path d="M146.555 255.218C147.611 255.218 148.468 254.362 148.468 253.305C148.468 252.248 147.611 251.392 146.555 251.392C145.498 251.392 144.641 252.248 144.641 253.305C144.641 254.362 145.498 255.218 146.555 255.218Z" fill="#63C197"/>
<path d="M151.966 260.63C153.023 260.63 153.879 259.773 153.879 258.716C153.879 257.659 153.023 256.803 151.966 256.803C150.909 256.803 150.052 257.659 150.052 258.716C150.052 259.773 150.909 260.63 151.966 260.63Z" fill="#63C197"/>
<path d="M112.759 218.156L108.712 214.098" stroke="#63C197" stroke-width="1.97" stroke-linecap="round" stroke-linejoin="round"/>
<path d="M97.89 203.288L93.8438 199.229" stroke="#63C197" stroke-width="1.97" stroke-linecap="round" stroke-linejoin="round"/>
<path d="M93.8438 218.156L97.89 214.098" stroke="#63C197" stroke-width="1.97" stroke-linecap="round" stroke-linejoin="round"/>
<path d="M108.712 203.288L112.759 199.229" stroke="#63C197" stroke-width="1.97" stroke-linecap="round" stroke-linejoin="round"/>
<path d="M220.679 279.362C220.693 288.872 218.635 298.272 214.646 306.906H94.9528C90.8409 297.96 88.7864 288.207 88.9402 278.363C89.0941 268.519 91.4525 258.835 95.842 250.023C100.231 241.211 106.54 233.494 114.305 227.441C122.069 221.388 131.092 217.152 140.709 215.046C150.326 212.939 160.292 213.014 169.876 215.267C179.46 217.519 188.418 221.891 196.089 228.061C203.761 234.231 209.952 242.042 214.208 250.92C218.463 259.798 220.674 269.517 220.679 279.362Z" fill="#90E3BE"/>
<path d="M220.679 279.362C220.693 288.872 218.635 298.272 214.646 306.906H202.678C207.078 297.328 209.117 286.834 208.624 276.305C208.13 265.776 205.119 255.519 199.842 246.395C194.565 237.27 187.177 229.544 178.298 223.865C169.418 218.186 159.306 214.72 148.809 213.757C150.784 213.586 152.783 213.488 154.806 213.488C163.459 213.48 172.028 215.179 180.024 218.486C188.02 221.794 195.285 226.646 201.403 232.764C207.522 238.883 212.373 246.148 215.681 254.144C218.989 262.139 220.687 270.709 220.679 279.362V279.362Z" fill="#B1FFDC" fill-opacity="0.27"/>
<path d="M253.013 67.3603H56.5988C52.6275 67.3603 49.4081 70.5797 49.4081 74.5509V117.658C49.4081 121.629 52.6275 124.849 56.5988 124.849H253.013C256.984 124.849 260.203 121.629 260.203 117.658V74.5509C260.203 70.5797 256.984 67.3603 253.013 67.3603Z" fill="#42B883"/>
<path d="M260.203 74.5509V117.67C260.2 119.576 259.441 121.403 258.093 122.751C256.746 124.099 254.919 124.858 253.013 124.861H193.123V67.3603H253.013C254.919 67.3635 256.746 68.1222 258.093 69.47C259.441 70.8178 260.2 72.6449 260.203 74.5509Z" fill="#56C996"/>
<path d="M230.258 106.884C236.209 106.884 241.032 102.061 241.032 96.1106C241.032 90.1604 236.209 85.3369 230.258 85.3369C224.308 85.3369 219.485 90.1604 219.485 96.1106C219.485 102.061 224.308 106.884 230.258 106.884Z" fill="#63C197"/>
<path d="M241.032 96.1106C241.032 98.968 239.897 101.708 237.877 103.729C235.856 105.749 233.116 106.884 230.258 106.884C229.243 106.892 228.233 106.749 227.26 106.458C229.512 105.815 231.492 104.456 232.902 102.587C234.312 100.717 235.075 98.4398 235.075 96.0984C235.075 93.7571 234.312 91.4795 232.902 89.6103C231.492 87.7411 229.512 86.3822 227.26 85.7391C228.232 85.4444 229.243 85.2965 230.258 85.3003C231.676 85.3019 233.079 85.5829 234.388 86.1272C235.697 86.6715 236.885 87.4684 237.886 88.4724C238.887 89.4764 239.679 90.6677 240.219 91.9784C240.759 93.289 241.035 94.6932 241.032 96.1106V96.1106Z" fill="#42B883"/>
<path d="M260.203 74.5509V117.67C260.2 119.576 259.441 121.403 258.093 122.751C256.746 124.099 254.919 124.858 253.013 124.861H242.239C244.144 124.858 245.97 124.099 247.315 122.751C248.661 121.402 249.417 119.575 249.417 117.67V74.5509C249.417 72.646 248.661 70.8189 247.315 69.4707C245.97 68.1226 244.144 67.3635 242.239 67.3603H253.013C254.919 67.3635 256.746 68.1222 258.093 69.47C259.441 70.8178 260.2 72.6449 260.203 74.5509Z" fill="#1C915C"/>
<path d="M253.013 139.23H56.5988C52.6275 139.23 49.4081 142.449 49.4081 146.421V189.528C49.4081 193.499 52.6275 196.718 56.5988 196.718H253.013C256.984 196.718 260.203 193.499 260.203 189.528V146.421C260.203 142.449 256.984 139.23 253.013 139.23Z" fill="#42B883"/>
<path d="M260.203 146.408V189.528C260.203 191.435 259.446 193.264 258.097 194.612C256.749 195.961 254.92 196.718 253.013 196.718H193.123V139.23H253.013C254.917 139.23 256.745 139.986 258.093 141.332C259.441 142.678 260.2 144.503 260.203 146.408V146.408Z" fill="#56C996"/>
<path d="M230.258 178.742C236.209 178.742 241.032 173.918 241.032 167.968C241.032 162.018 236.209 157.194 230.258 157.194C224.308 157.194 219.485 162.018 219.485 167.968C219.485 173.918 224.308 178.742 230.258 178.742Z" fill="#63C197"/>
<path d="M241.032 167.968C241.034 169.384 240.756 170.786 240.216 172.095C239.675 173.403 238.882 174.592 237.881 175.594C236.88 176.596 235.692 177.391 234.384 177.933C233.076 178.475 231.674 178.754 230.258 178.754C229.243 178.758 228.232 178.61 227.26 178.315C229.512 177.672 231.492 176.313 232.902 174.444C234.312 172.575 235.075 170.297 235.075 167.956C235.075 165.615 234.312 163.337 232.902 161.468C231.492 159.599 229.512 158.24 227.26 157.597C228.234 157.312 229.244 157.168 230.258 157.17C231.675 157.17 233.078 157.449 234.387 157.992C235.696 158.535 236.885 159.331 237.885 160.334C238.886 161.337 239.679 162.528 240.219 163.838C240.759 165.148 241.035 166.551 241.032 167.968V167.968Z" fill="#42B883"/>
<path d="M260.203 146.408V189.528C260.203 191.435 259.446 193.264 258.097 194.612C256.749 195.961 254.92 196.718 253.013 196.718H242.239C244.144 196.715 245.97 195.956 247.315 194.608C248.661 193.26 249.417 191.433 249.417 189.528V146.408C249.417 144.505 248.661 142.679 247.315 141.332C245.968 139.986 244.143 139.23 242.239 139.23H253.013C254.917 139.23 256.745 139.986 258.093 141.332C259.441 142.678 260.2 144.503 260.203 146.408V146.408Z" fill="#1C915C"/>
<path d="M154.806 139.23V126.055" stroke="#42B883" stroke-width="3.93" stroke-linecap="round" stroke-linejoin="round"/>
<path d="M154.806 213.488V196.718" stroke="#42B883" stroke-width="3.93" stroke-linecap="round" stroke-linejoin="round"/>
<path d="M253.013 139.23H56.5988C52.6275 139.23 49.4081 142.449 49.4081 146.421V189.528C49.4081 193.499 52.6275 196.718 56.5988 196.718H253.013C256.984 196.718 260.203 193.499 260.203 189.528V146.421C260.203 142.449 256.984 139.23 253.013 139.23Z" stroke="#1C915C" stroke-width="3.93" stroke-linecap="round" stroke-linejoin="round"/>
<path d="M253.013 67.3603H56.5988C52.6275 67.3603 49.4081 70.5797 49.4081 74.5509V117.658C49.4081 121.629 52.6275 124.849 56.5988 124.849H253.013C256.984 124.849 260.203 121.629 260.203 117.658V74.5509C260.203 70.5797 256.984 67.3603 253.013 67.3603Z" stroke="#1C915C" stroke-width="3.93" stroke-linecap="round" stroke-linejoin="round"/>
<path d="M230.258 106.884C236.209 106.884 241.032 102.061 241.032 96.1106C241.032 90.1604 236.209 85.3369 230.258 85.3369C224.308 85.3369 219.485 90.1604 219.485 96.1106C219.485 102.061 224.308 106.884 230.258 106.884Z" stroke="#1C915C" stroke-width="3.93" stroke-linecap="round" stroke-linejoin="round"/>
<path d="M230.258 178.742C236.209 178.742 241.032 173.918 241.032 167.968C241.032 162.018 236.209 157.194 230.258 157.194C224.308 157.194 219.485 162.018 219.485 167.968C219.485 173.918 224.308 178.742 230.258 178.742Z" stroke="#1C915C" stroke-width="3.93" stroke-linecap="round" stroke-linejoin="round"/>
<path d="M260.203 74.5509V117.67C260.2 119.576 259.441 121.403 258.093 122.751C256.746 124.099 254.919 124.858 253.013 124.861H193.123V67.3603H253.013C254.919 67.3635 256.746 68.1222 258.093 69.47C259.441 70.8178 260.2 72.6449 260.203 74.5509Z" stroke="#1C915C" stroke-width="3.93" stroke-linecap="round" stroke-linejoin="round"/>
<path d="M260.203 146.408V189.528C260.203 191.435 259.446 193.264 258.097 194.612C256.749 195.961 254.92 196.718 253.013 196.718H193.123V139.23H253.013C254.917 139.23 256.745 139.986 258.093 141.332C259.441 142.678 260.2 144.503 260.203 146.408V146.408Z" stroke="#1C915C" stroke-width="3.93" stroke-linecap="round" stroke-linejoin="round"/>
<path d="M178.754 85.3247H98.5116V106.884H178.754V85.3247Z" fill="#B1FFDC" fill-opacity="0.27"/>
<path d="M178.754 157.194H98.5116V178.754H178.754V157.194Z" fill="#B1FFDC" fill-opacity="0.27"/>
<path d="M85.3369 108.091H63.7772" stroke="#1C915C" stroke-width="3.93" stroke-linecap="round" stroke-linejoin="round"/>
<path d="M85.3369 96.1106H63.7772" stroke="#1C915C" stroke-width="3.93" stroke-linecap="round" stroke-linejoin="round"/>
<path d="M85.3369 84.1303H63.7772" stroke="#1C915C" stroke-width="3.93" stroke-linecap="round" stroke-linejoin="round"/>
<path d="M85.3369 179.948H63.7772" stroke="#1C915C" stroke-width="3.93" stroke-linecap="round" stroke-linejoin="round"/>
<path d="M85.3369 167.968H63.7772" stroke="#1C915C" stroke-width="3.93" stroke-linecap="round" stroke-linejoin="round"/>
<path d="M85.3369 156H63.7772" stroke="#1C915C" stroke-width="3.93" stroke-linecap="round" stroke-linejoin="round"/>
<path d="M116.695 241.312C111.674 246.308 107.689 252.246 104.97 258.786C102.251 265.327 100.851 272.34 100.852 279.423H88.9688C88.9443 270.763 90.6331 262.183 93.938 254.179C97.2428 246.174 102.098 238.902 108.225 232.781L116.695 241.312Z" fill="#63C197"/>
<path d="M154.781 213.488V225.469C147.702 225.471 140.693 226.871 134.157 229.59C127.621 232.309 121.687 236.293 116.695 241.312L108.164 232.842C114.274 226.701 121.538 221.829 129.539 218.507C137.54 215.186 146.118 213.48 154.781 213.488V213.488Z" fill="#42B883"/>
<path d="M201.386 232.781L192.855 241.252C187.859 236.246 181.924 232.275 175.391 229.567C168.857 226.858 161.854 225.466 154.781 225.469V213.488C163.438 213.474 172.012 215.171 180.01 218.482C188.008 221.793 195.273 226.652 201.386 232.781V232.781Z" fill="#56C996"/>
<path d="M220.679 279.362H208.699C208.7 272.279 207.301 265.265 204.582 258.725C201.863 252.185 197.877 246.246 192.855 241.252L201.386 232.781C207.51 238.893 212.367 246.154 215.678 254.148C218.988 262.141 220.688 270.71 220.679 279.362V279.362Z" fill="#1C915C"/>
<path d="M154.806 297.326C158.111 297.326 160.79 294.647 160.79 291.342C160.79 288.037 158.111 285.358 154.806 285.358C151.501 285.358 148.822 288.037 148.822 291.342C148.822 294.647 151.501 297.326 154.806 297.326Z" stroke="#1C915C" stroke-width="3.93" stroke-linecap="round" stroke-linejoin="round"/>
<path d="M154.806 244.628V285.346" stroke="#1C915C" stroke-width="3.93" stroke-linecap="round" stroke-linejoin="round"/>
<path d="M220.679 279.362C220.693 288.872 218.635 298.272 214.646 306.906H94.9528C90.8409 297.96 88.7864 288.207 88.9402 278.363C89.0941 268.519 91.4525 258.835 95.842 250.023C100.231 241.211 106.54 233.494 114.305 227.441C122.069 221.388 131.092 217.152 140.709 215.046C150.326 212.939 160.292 213.014 169.876 215.267C179.46 217.519 188.418 221.891 196.089 228.061C203.761 234.231 209.952 242.042 214.208 250.92C218.463 259.798 220.674 269.517 220.679 279.362Z" stroke="#1C915C" stroke-width="3.93" stroke-linecap="round" stroke-linejoin="round"/>
<path d="M290.647 9.49405H298.435" stroke="#63C197" stroke-width="1.97" stroke-linecap="round" stroke-linejoin="round"/>
<path d="M290.647 19.0734H303.822" stroke="#63C197" stroke-width="1.97" stroke-linecap="round" stroke-linejoin="round"/>
<path d="M290.647 28.665H298.435" stroke="#63C197" stroke-width="1.97" stroke-linecap="round" stroke-linejoin="round"/>
<path d="M290.647 38.2444H303.822" stroke="#63C197" stroke-width="1.97" stroke-linecap="round" stroke-linejoin="round"/>
<path d="M11.6269 112.795L22.6809 103.326L33.7228 112.795" stroke="#63C197" stroke-width="1.97" stroke-linecap="round" stroke-linejoin="round"/>
<path d="M11.6269 100.181L22.6809 90.7115L33.7228 100.181" stroke="#63C197" stroke-width="1.97" stroke-linecap="round" stroke-linejoin="round"/>
<path d="M11.6269 87.555L22.6809 78.0853L33.7228 87.555" stroke="#63C197" stroke-width="1.97" stroke-linecap="round" stroke-linejoin="round"/>
<path d="M20.7309 26.1787H10.2253V58.1466H20.7309V26.1787Z" fill="#B1FFDC" fill-opacity="0.27"/>
<path d="M38.2322 34.9294H27.7266V58.1466H38.2322V34.9294Z" fill="#B1FFDC" fill-opacity="0.27"/>
<path d="M55.7334 17.4281H45.2278V58.1466H55.7334V17.4281Z" fill="#B1FFDC" fill-opacity="0.27"/>
<path d="M73.2469 3.41251H62.7412V58.1344H73.2469V3.41251Z" fill="#63C197"/>
<path d="M9.14062 286.223C8.81739 286.223 8.5074 286.095 8.27884 285.866C8.05028 285.638 7.92188 285.328 7.92188 285.005V279.581C7.92188 277.196 8.86949 274.908 10.5563 273.221C12.243 271.534 14.5308 270.587 16.9163 270.587C19.3017 270.587 21.5895 271.534 23.2762 273.221C24.963 274.908 25.9106 277.196 25.9106 279.581V285.005C25.9106 285.328 25.7822 285.638 25.5537 285.866C25.3251 286.095 25.0151 286.223 24.6919 286.223" stroke="#63C197" stroke-width="1.97" stroke-linecap="round" stroke-linejoin="round"/>
<path d="M29.7131 285.163H4.15594V307.235H29.7131V285.163Z" fill="#B1FFDC" fill-opacity="0.27"/>
<path d="M29.7131 285.163H4.15594V307.235H29.7131V285.163Z" stroke="#63C197" stroke-width="1.97" stroke-linecap="round" stroke-linejoin="round"/>
<path d="M16.9284 297.375C18.692 297.375 20.1216 295.945 20.1216 294.182C20.1216 292.418 18.692 290.989 16.9284 290.989C15.1649 290.989 13.7353 292.418 13.7353 294.182C13.7353 295.945 15.1649 297.375 16.9284 297.375Z" fill="#63C197"/>
<path d="M15.2222 294.401H18.6347V300.361C18.6347 300.813 18.4549 301.247 18.1349 301.567C17.815 301.887 17.381 302.067 16.9284 302.067V302.067C16.4759 302.067 16.0419 301.887 15.7219 301.567C15.402 301.247 15.2222 300.813 15.2222 300.361V294.401V294.401Z" fill="#63C197"/>
<path d="M254.536 57.0862C268.893 57.0862 280.532 45.4475 280.532 31.0903C280.532 16.7331 268.893 5.09436 254.536 5.09436C240.179 5.09436 228.54 16.7331 228.54 31.0903C228.54 45.4475 240.179 57.0862 254.536 57.0862Z" fill="#B1FFDC" fill-opacity="0.27"/>
<path d="M254.536 9.44531V11.4319" stroke="#63C197" stroke-width="1.97" stroke-linecap="round" stroke-linejoin="round"/>
<path d="M254.536 50.7366V52.7231" stroke="#63C197" stroke-width="1.97" stroke-linecap="round" stroke-linejoin="round"/>
<path d="M276.169 31.0903H274.182" stroke="#63C197" stroke-width="1.97" stroke-linecap="round" stroke-linejoin="round"/>
<path d="M234.877 31.0903H232.891" stroke="#63C197" stroke-width="1.97" stroke-linecap="round" stroke-linejoin="round"/>
<path d="M240.642 44.9719L251.05 27.6047L268.418 17.1966L258.009 34.5638L240.642 44.9719Z" fill="#63C197"/>
</g>
<defs>
<clipPath id="clip0_1_2">
<rect width="312" height="312" fill="white"/>
</clipPath>
</defs>
</svg>
